<svg xmlns="http://www.w3.org/2000/svg" width="32" height="32" id="laptop"><path d="M3.492 1027.362v14.967h-2c0 1.127.906 2.033 2.033 2.033h23.949a2.03 2.03 0 0 0 2.035-2.033h-2.017v-14.967h-24z" color="#000" opacity=".15" overflow="visible" style="isolation:auto;mix-blend-mode:normal" transform="translate(.508 -1019.362)"></path><path fill="#2b4255" color="#000" overflow="visible" style="isolation:auto;mix-blend-mode:normal" d="M4.492 1027.362h24v15h-24z" transform="translate(.508 -1019.362)"></path><path style="isolation:auto;mix-blend-mode:normal" fill="#4bbfeb" d="M5.53 1028.516h21.923v12.846H5.53z" color="#000" overflow="visible" transform="translate(.508 -1019.362)"></path><path fill="#576d7e" d="M30.508 1042.328a2.03 2.03 0 0 1-2.033 2.034H4.525a2.03 2.03 0 0 1-2.033-2.034z" color="#000" overflow="visible" style="isolation:auto;mix-blend-mode:normal" transform="translate(.508 -1019.362)"></path><path fill="#cad1d8" d="M19.154 1042.328c0 .516-.415.931-.93.931h-3.447a.929.929 0 0 1-.93-.93" color="#000" overflow="visible" style="isolation:auto;mix-blend-mode:normal" transform="translate(.508 -1019.362)"></path><path d="M18.472 12.286a2.321 2.321 0 0 0-1.877.96 1.429 1.429 0 0 0-.801-.246 1.429 1.429 0 0 0-1.429 1.429 1.429 1.429 0 0 0 .015.19.893.893 0 0 0-.55-.19.893.893 0 0 0-.875.714h-.018c-.792 0-1.429.637-1.429 1.429 0 .791.637 1.428 1.429 1.428h7.142a1.425 1.425 0 0 0 .613-2.715 2.321 2.321 0 0 0 .102-.678 2.321 2.321 0 0 0-2.322-2.321z" opacity=".15"></path><path fill="#e9eded" d="M19.472 12.286a2.321 2.321 0 0 0-1.877.96 1.429 1.429 0 0 0-.801-.246 1.429 1.429 0 0 0-1.429 1.429 1.429 1.429 0 0 0 .015.19.893.893 0 0 0-.55-.19.893.893 0 0 0-.875.714h-.018c-.792 0-1.429.637-1.429 1.429 0 .791.637 1.428 1.429 1.428h7.142a1.425 1.425 0 0 0 .613-2.715 2.321 2.321 0 0 0 .102-.678 2.321 2.321 0 0 0-2.322-2.321z"></path></svg>